HIERARCHY
ROOT Hips
{
	OFFSET 0.00000 0.00000 0.00000
	CHANNELS 6 Xposition Yposition Zposition Zrotation Yrotation Xrotation 
	JOINT RightUpLegDummy
	{
		OFFSET 0 0 0
		CHANNELS 3 Zrotation Yrotation Xrotation
		JOINT RightUpLeg
		{
			OFFSET -3.52197 -3.41223 0.04002
			CHANNELS 3 Zrotation Yrotation Xrotation
			JOINT RightLeg
			{
				OFFSET 0.00006 -17.42390 1.60435
				CHANNELS 3 Zrotation Yrotation Xrotation
				JOINT RightFoot
				{
					OFFSET 0.06153 -16.50078 -1.63901
					CHANNELS 3 Zrotation Yrotation Xrotation
					JOINT RightToes
					{
						OFFSET 0.00298 -1.73825 3.34613
						CHANNELS 3 Zrotation Yrotation Xrotation
						End Site
						{
							OFFSET 0.00480 -0.05416 3.85043
						}
					}
				}
			}
		}
	}
	JOINT SpineDummy
	{
		OFFSET 0 0 0
		CHANNELS 3 Zrotation Yrotation Xrotation
		JOINT Spine
		{
			OFFSET 0.00000 4.68130 0.00000
			CHANNELS 3 Zrotation Yrotation Xrotation
			JOINT Spine1
			{
				OFFSET -0.00000 10.10138 0.05002
				CHANNELS 3 Zrotation Yrotation Xrotation
				JOINT HEadDummy
				{
					OFFSET 0 0 0
					CHANNELS 3 Zrotation Yrotation Xrotation
					JOINT Head
					{
						OFFSET -0.00000 3.43865 0.00438
						CHANNELS 3 Zrotation Yrotation Xrotation
						End Site
						{
							OFFSET -0.11417 5.02924 0.98962
						}
					}
				}
				JOINT LeftShoulder1Dummy
				{
					OFFSET 0 0 0
					CHANNELS 3 Zrotation Yrotation Xrotation
					JOINT LeftShoulder1
					{
						OFFSET 3.53937 -0.14262 -0.08662
						CHANNELS 3 Zrotation Yrotation Xrotation
						JOINT LeftArm
						{
							OFFSET 4.04833 -0.00133 0.12681
							CHANNELS 3 Zrotation Yrotation Xrotation
							JOINT LeftForeArm
							{
								OFFSET 10.33880 -0.01036 -0.55515
								CHANNELS 3 Zrotation Yrotation Xrotation
								JOINT LeftHand
								{
									OFFSET 8.69677 0.07543 0.40060
									CHANNELS 3 Zrotation Yrotation Xrotation
									End Site
									{
										OFFSET 5.28377 -0.21905 0.59205
									}
								}
							}
						}
					}
				}
				JOINT RightShoulderDummy
				{
					OFFSET 0 0 0
					CHANNELS 3 Zrotation Yrotation Xrotation
					JOINT RightShoulder
					{
						OFFSET -3.53937 -0.14262 -0.08660
						CHANNELS 3 Zrotation Yrotation Xrotation
						JOINT RightArm
						{
							OFFSET -4.04833 -0.00133 0.12683
							CHANNELS 3 Zrotation Yrotation Xrotation
							JOINT RightForeArm
							{
								OFFSET -10.37987 -0.01039 -0.55511
								CHANNELS 3 Zrotation Yrotation Xrotation
								JOINT RightHand
								{
									OFFSET -8.67398 0.07538 0.40058
									CHANNELS 3 Zrotation Yrotation Xrotation
									End Site
									{
										OFFSET -5.24810 -0.21916 0.59204
									}
								}
							}
						}
					}
				}
			}
		}
	}
	JOINT LeftUpLegDummy
	{
		OFFSET 0 0 0
		CHANNELS 3 Zrotation Yrotation Xrotation
		JOINT LeftUpLeg
		{
			OFFSET 3.52197 -3.41223 0.04002
			CHANNELS 3 Zrotation Yrotation Xrotation
			JOINT LeftLeg
			{
				OFFSET -0.00012 -17.42399 1.60337
				CHANNELS 3 Zrotation Yrotation Xrotation
				JOINT LeftFoot
				{
					OFFSET -0.09972 -16.50070 -1.63802
					CHANNELS 3 Zrotation Yrotation Xrotation
					JOINT LeftToes
					{
						OFFSET -0.01575 -1.73823 3.34611
						CHANNELS 3 Zrotation Yrotation Xrotation
						End Site
						{
							OFFSET 0.03150 -0.01868 3.85031
						}
					}
				}
			}
		}
	}
}
MOTION
Frames: 17
Frame Time: 0.033333
-42.2222 39.8758 76.6207 -178.7590 2.9897 178.3350 0.0000 0.0000 0.0000 2.3822 -1.1663 1.1239 -1.1283 -4.4459 3.4638 -2.0868 0.1350 -3.0158 0.0000 -0.0000 -0.0000 0.0000 0.0000 0.0000 0.6182 0.0503 -0.7077 2.8521 -0.6112 3.1330 -0.0000 0.0000 -0.0000 2.4260 -1.8145 3.6365 -0.0000 0.0000 -0.0000 -33.4788 -3.1068 2.6111 -45.0197 -14.4847 -18.1230 -10.1195 5.1153 48.7785 16.9952 -2.7738 -1.1763 -0.0000 0.0000 -0.0000 35.5240 5.3118 3.6635 39.5471 5.4063 -15.9395 11.0894 -0.1428 23.1245 -13.8633 0.9053 -0.7445 0.0000 0.0000 0.0000 1.8387 2.0624 1.5556 2.6722 11.8459 5.5284 1.2550 -0.0426 -4.9707 0.0000 0.0000 -0.0000
-42.2114 39.8758 76.6210 -178.6870 3.0573 178.2220 0.0000 0.0000 0.0000 2.4994 -1.0978 1.3008 -1.1614 -4.4694 3.3656 -2.1075 0.1363 -2.9920 0.0000 -0.0000 -0.0000 0.0000 0.0000 0.0000 0.6229 0.0503 -0.3189 3.0717 -0.6426 2.8202 -0.0000 0.0000 -0.0000 2.3926 -1.4905 3.4401 -0.0000 0.0000 -0.0000 -33.7465 -2.9961 2.5849 -44.8765 -14.4300 -18.1272 -10.1380 5.1071 48.9392 17.1246 -3.0419 -1.2232 -0.0000 0.0000 -0.0000 35.2154 5.2492 3.6100 39.7982 5.4087 -16.0780 11.0348 -0.2037 23.2132 -13.8432 1.0320 -0.7576 0.0000 0.0000 0.0000 1.9653 2.1638 1.6621 2.6429 11.8039 5.6024 1.2208 -0.0404 -5.0284 0.0000 0.0000 -0.0000
-42.1919 39.8758 76.6246 -178.6230 3.1312 178.0740 0.0000 0.0000 0.0000 2.6113 -1.0467 1.4872 -1.1759 -4.4704 3.3064 -2.1384 0.1382 -2.9845 0.0000 -0.0000 -0.0000 0.0000 0.0000 0.0000 0.5457 0.0406 0.2938 3.4854 -0.7180 2.2926 -0.0000 0.0000 -0.0000 2.2861 -0.8161 3.1506 -0.0000 0.0000 -0.0000 -34.2290 -2.7731 2.5271 -44.6462 -14.3435 -18.0578 -10.1745 5.0951 49.3393 16.7847 -3.2991 -1.2339 -0.0000 0.0000 -0.0000 34.5864 5.1207 3.5018 40.3367 5.4899 -16.2987 10.9404 -0.3846 23.4779 -13.6642 1.2137 -0.7678 0.0000 0.0000 0.0000 2.1011 2.2721 1.7948 2.6140 11.7590 5.6857 1.1667 -0.0369 -5.0837 0.0000 0.0000 -0.0000
-42.1728 39.8758 76.6371 -178.6290 3.1597 178.0170 0.0000 0.0000 0.0000 2.6262 -1.0547 1.5031 -1.1543 -4.4333 3.3583 -2.1613 0.1398 -2.9973 0.0000 -0.0000 -0.0000 0.0000 0.0000 0.0000 0.4872 0.0089 0.6337 3.7004 -0.7807 1.9742 -0.0000 0.0000 -0.0000 2.2384 -0.3627 3.0408 -0.0000 0.0000 -0.0000 -34.4758 -2.5893 2.4685 -44.5805 -14.2742 -17.8129 -10.2943 5.0928 49.3691 15.9737 -3.1389 -1.1513 -0.0000 0.0000 -0.0000 34.2534 5.0575 3.4473 40.6442 5.5621 -16.3491 10.9026 -0.4980 23.7409 -13.4429 1.1806 -0.7515 0.0000 0.0000 0.0000 2.1420 2.3084 1.8325 2.5990 11.7465 5.7101 1.1396 -0.0352 -5.0764 0.0000 0.0000 -0.0000
-42.1567 39.8752 76.6535 -178.6820 3.1833 178.0550 0.0000 0.0000 0.0000 2.5881 -1.0719 1.3783 -1.1396 -4.3824 3.4619 -2.1860 0.1414 -3.0106 0.0000 -0.0000 -0.0000 0.0000 0.0000 0.0000 0.4675 0.0264 0.5419 3.6733 -0.7578 2.0178 -0.0000 0.0000 -0.0000 2.2594 -0.6413 3.0586 -0.0000 0.0000 -0.0000 -34.3680 -2.6126 2.4712 -44.6928 -14.1469 -17.2592 -10.6208 5.1115 48.5973 15.6672 -2.7145 -1.0734 -0.0000 0.0000 -0.0000 34.5463 5.1291 3.5018 40.3563 5.4629 -16.1617 10.9712 -0.3731 23.6641 -13.4693 0.8352 -0.7152 0.0000 0.0000 0.0000 2.1114 2.2936 1.7857 2.5878 11.7828 5.6680 1.1341 -0.0348 -5.0188 0.0000 0.0000 -0.0000
-42.1414 39.8746 76.6676 -178.7510 3.2299 178.1250 0.0000 0.0000 0.0000 2.5417 -1.0786 1.2245 -1.1414 -4.3279 3.5597 -2.2087 0.1429 -3.0290 0.0000 -0.0000 -0.0000 0.0000 0.0000 0.0000 0.3661 0.1371 0.2485 3.7329 -0.6592 2.2479 -0.0000 0.0000 -0.0000 2.1910 -1.3933 2.8759 -0.0000 0.0000 -0.0000 -34.2331 -2.8031 2.5394 -44.7900 -14.0842 -16.6584 -10.9898 5.1324 47.7184 16.4700 -2.6190 -1.1184 -0.0000 0.0000 -0.0000 34.9310 5.2043 3.5662 39.9343 5.2721 -15.9221 11.0771 -0.1067 23.3040 -13.6744 0.4008 -0.6784 0.0000 0.0000 0.0000 2.0539 2.2562 1.7279 2.5868 11.8626 5.5888 1.1070 -0.0331 -4.9542 0.0000 0.0000 -0.0000
-42.1255 39.8740 76.6786 -178.8040 3.2687 178.1860 0.0000 0.0000 0.0000 2.5103 -1.0819 1.1060 -1.1388 -4.2864 3.6234 -2.2066 0.1428 -3.0508 0.0000 -0.0000 -0.0000 0.0000 0.0000 0.0000 0.2701 0.2489 0.0390 3.8702 -0.5739 2.4311 -0.0000 0.0000 -0.0000 2.0478 -1.9585 2.4455 -0.0000 0.0000 -0.0000 -34.2001 -2.8881 2.5715 -44.8970 -14.4538 -16.6725 -10.9514 5.1274 47.9068 17.5398 -2.9606 -1.2421 -0.0000 0.0000 -0.0000 34.7966 5.1582 3.5356 40.0718 5.2432 -15.8397 11.1123 0.0196 23.1790 -13.5899 0.2405 -0.6564 0.0000 0.0000 0.0000 2.0021 2.2076 1.6739 2.6189 11.9464 5.5329 1.0518 -0.0295 -4.9099 0.0000 0.0000 -0.0000
-42.1090 39.8733 76.6914 -178.7960 3.2867 178.2290 0.0000 0.0000 0.0000 2.5535 -1.0401 1.0415 -1.1522 -4.3057 3.6182 -2.1968 0.1422 -3.0393 0.0000 -0.0000 -0.0000 0.0000 0.0000 0.0000 0.4823 0.2606 0.0017 3.6384 -0.5257 2.4581 -0.0000 0.0000 -0.0000 2.1138 -2.0469 2.2045 -0.0000 0.0000 -0.0000 -33.9511 -2.7358 2.4947 -45.2635 -15.2033 -17.4347 -10.3881 5.0981 49.1497 17.7844 -3.1684 -1.2908 -0.0000 0.0000 -0.0000 34.4424 5.0644 3.4664 40.5991 5.4073 -15.9539 11.0574 -0.1416 23.5343 -13.0977 0.4930 -0.6589 0.0000 0.0000 0.0000 2.0072 2.1782 1.5945 2.6893 11.9906 5.5637 0.9925 -0.0265 -4.8934 0.0000 0.0000 -0.0000
-42.0891 39.8725 76.7100 -178.7250 3.3280 178.2340 0.0000 0.0000 0.0000 2.6961 -0.9285 1.0423 -1.2034 -4.3792 3.5471 -2.2407 0.1448 -2.9792 0.0000 -0.0000 -0.0000 0.0000 0.0000 0.0000 0.9907 0.2161 0.0638 3.0014 -0.4627 2.3673 -0.0000 0.0000 -0.0000 2.5074 -1.7346 2.4631 -0.0000 0.0000 -0.0000 -33.4086 -2.5623 2.3920 -45.8110 -15.6387 -18.0624 -9.8775 5.0758 50.1042 17.4709 -3.0242 -1.2464 -0.0000 0.0000 -0.0000 34.5132 5.0712 3.4754 40.7744 5.5185 -16.1278 10.9949 -0.4076 23.9179 -12.8387 0.8758 -0.6857 0.0000 0.0000 0.0000 2.0984 2.2051 1.5145 2.7619 11.9975 5.6760 0.9200 -0.0226 -4.9035 0.0000 0.0000 -0.0000
-42.0622 39.8716 76.7303 -178.6680 3.4116 178.1970 0.0000 0.0000 0.0000 2.8259 -0.8426 1.0708 -1.2306 -4.3974 3.5060 -2.3533 0.1519 -2.9285 0.0000 -0.0000 -0.0000 0.0000 0.0000 0.0000 1.3627 0.1998 0.0945 2.5481 -0.4040 2.3457 -0.0000 0.0000 -0.0000 2.8965 -1.2128 2.8608 -0.0000 0.0000 -0.0000 -33.0748 -2.5956 2.3847 -46.0221 -15.3400 -17.7686 -10.0161 5.0809 49.8741 17.5427 -2.9814 -1.2457 -0.0000 0.0000 -0.0000 34.8885 5.1552 3.5424 40.4978 5.5064 -16.1612 11.0015 -0.4834 23.8719 -13.3723 0.9372 -0.7210 0.0000 0.0000 0.0000 2.2134 2.2758 1.4910 2.7824 12.0003 5.7787 0.8298 -0.0176 -4.9212 0.0000 0.0000 -0.0000
-42.0289 39.8702 76.7457 -178.6980 3.4871 178.1480 0.0000 0.0000 0.0000 2.8269 -0.8755 1.0612 -1.1762 -4.3047 3.5765 -2.4678 0.1593 -2.9456 0.0000 -0.0000 -0.0000 0.0000 0.0000 0.0000 1.3777 0.1717 0.0264 2.5720 -0.4442 2.5401 -0.0000 0.0000 -0.0000 2.9002 -0.9025 2.7968 -0.0000 0.0000 -0.0000 -33.2750 -2.7533 2.4589 -45.6641 -14.8112 -17.0752 -10.4979 5.0991 49.0731 17.9108 -3.2165 -1.3072 -0.0000 0.0000 -0.0000 35.0237 5.1946 3.5704 40.3008 5.5730 -15.9719 11.0605 -0.3099 23.6023 -14.2218 0.6259 -0.7318 0.0000 0.0000 0.0000 2.2652 2.3382 1.5233 2.7403 11.9967 5.7969 0.7803 -0.0151 -4.9161 0.0000 0.0000 -0.0000
-41.9931 39.8694 76.7571 -178.7690 3.5063 178.1020 0.0000 0.0000 0.0000 2.7793 -0.9399 1.0343 -1.1207 -4.2320 3.6914 -2.5244 0.1631 -2.9956 0.0000 -0.0000 -0.0000 0.0000 0.0000 0.0000 1.2849 0.0701 -0.0056 2.7230 -0.5818 2.7556 -0.0000 0.0000 -0.0000 2.5860 -1.1959 2.2716 -0.0000 0.0000 -0.0000 -33.6632 -2.8223 2.5106 -45.1559 -14.7013 -16.9722 -10.6541 5.1075 48.7197 17.6974 -3.2265 -1.2931 -0.0000 0.0000 -0.0000 34.9487 5.1950 3.5640 40.3012 5.7252 -15.7253 11.1025 -0.0791 23.5140 -14.4038 0.4002 -0.7150 0.0000 0.0000 0.0000 2.2664 2.3640 1.5686 2.6985 11.9857 5.7740 0.7994 -0.0171 -4.8890 0.0000 0.0000 -0.0000
-41.9549 39.8689 76.7702 -178.7970 3.4804 178.0350 0.0000 0.0000 0.0000 2.8401 -0.8865 1.0747 -1.1853 -4.3234 3.7231 -2.5394 0.1641 -3.0029 0.0000 -0.0000 -0.0000 0.0000 0.0000 0.0000 1.2264 -0.0075 0.2022 2.8348 -0.6769 2.6177 -0.0000 0.0000 -0.0000 2.3281 -1.7788 1.9376 -0.0000 0.0000 -0.0000 -33.8650 -2.7821 2.5075 -44.9421 -14.8441 -17.3848 -10.4702 5.1048 48.8911 16.8921 -2.7713 -1.1687 -0.0000 0.0000 -0.0000 35.0117 5.2166 3.5784 40.1623 5.6513 -15.6800 11.0931 0.0743 23.5384 -13.7822 0.5843 -0.7040 0.0000 0.0000 0.0000 2.2884 2.3607 1.6136 2.7237 11.9507 5.7833 0.7956 -0.0176 -4.8652 0.0000 0.0000 -0.0000
-41.9098 39.8684 76.7866 -178.8060 3.4450 177.9690 0.0000 0.0000 0.0000 2.9750 -0.7460 1.1452 -1.3338 -4.5041 3.6848 -2.5582 0.1652 -2.9709 0.0000 -0.0000 -0.0000 0.0000 0.0000 0.0000 1.0019 0.0657 0.5695 3.1723 -0.6435 2.1359 -0.0000 0.0000 -0.0000 2.3029 -1.9223 2.1526 -0.0000 0.0000 -0.0000 -33.9952 -2.7492 2.5027 -44.9365 -14.6994 -17.4665 -10.4339 5.1020 48.9986 16.4111 -2.3565 -1.0779 -0.0000 0.0000 -0.0000 35.0582 5.2166 3.5826 39.9785 5.2494 -15.8800 11.0445 0.2084 23.4266 -13.2385 0.8573 -0.7053 0.0000 0.0000 0.0000 2.3253 2.3391 1.6532 2.7836 11.9152 5.7851 0.6961 -0.0119 -4.8348 0.0000 0.0000 -0.0000
-41.8560 39.8676 76.8034 -178.8770 3.4314 177.9780 0.0000 0.0000 0.0000 3.0285 -0.6667 1.0973 -1.4214 -4.5864 3.7109 -2.5984 0.1678 -2.9712 0.0000 -0.0000 -0.0000 0.0000 0.0000 0.0000 0.6561 0.2042 0.7381 3.5951 -0.5589 1.8009 -0.0000 0.0000 -0.0000 2.4203 -1.5970 2.5796 -0.0000 0.0000 -0.0000 -34.1491 -2.7745 2.5226 -44.8853 -14.3159 -17.0843 -10.6606 5.1049 48.8066 16.6225 -2.3944 -1.0978 -0.0000 0.0000 -0.0000 34.7820 5.1402 3.5269 40.1817 4.9346 -16.1177 10.9810 0.3017 23.3348 -13.3408 0.7437 -0.6984 0.0000 0.0000 0.0000 2.3245 2.3146 1.6486 2.7936 11.9099 5.7065 0.5804 -0.0052 -4.7640 0.0000 0.0000 -0.0000
-41.7990 39.8661 76.8194 -178.9710 3.4712 178.0470 0.0000 0.0000 0.0000 3.0072 -0.6754 0.9312 -1.3955 -4.5312 3.8360 -2.6695 0.1725 -3.0227 0.0000 -0.0000 -0.0000 0.0000 0.0000 0.0000 0.6459 0.2198 0.5589 3.4988 -0.5282 1.9530 -0.0000 0.0000 -0.0000 2.5412 -1.4853 2.6423 -0.0000 0.0000 -0.0000 -34.0809 -2.8209 2.5368 -44.8374 -14.1887 -16.9709 -10.7355 5.1096 48.6161 17.0339 -2.6202 -1.1574 -0.0000 0.0000 -0.0000 34.4841 5.0668 3.4710 40.6127 5.0912 -16.2009 10.9387 0.1690 23.5163 -13.5539 0.4165 -0.6741 0.0000 0.0000 0.0000 2.3206 2.3146 1.5899 2.7667 11.9416 5.6266 0.5271 -0.0025 -4.6818 0.0000 0.0000 -0.0000
-41.7454 39.8614 76.8343 -178.9790 3.5528 178.0510 0.0000 0.0000 0.0000 3.0497 -0.6933 0.8523 -1.3113 -4.4520 3.9377 -2.7909 0.1805 -3.0673 0.0000 -0.0000 -0.0000 0.0000 0.0000 0.0000 1.0817 0.1253 0.3322 2.9020 -0.5364 2.3128 -0.0000 0.0000 -0.0000 2.6139 -1.7474 2.3890 -0.0000 0.0000 -0.0000 -33.7674 -2.8322 2.5213 -44.9328 -14.4311 -17.4176 -10.4758 5.1087 48.7550 17.2308 -2.6781 -1.1795 -0.0000 0.0000 -0.0000 34.6079 5.0998 3.4953 40.6688 5.4551 -16.1380 10.9546 -0.1455 23.7272 -13.2930 0.4161 -0.6606 0.0000 0.0000 0.0000 2.3962 2.3477 1.5497 2.7982 11.9729 5.6898 0.4591 0.0012 -4.6627 0.0000 0.0000 -0.0000
